<svg id="logo" xmlns="http://www.w3.org/2000/svg" viewBox="0 0 100.01 100.01"><defs><style>.cls-1{fill:#004905;}.cls-2{fill:none;stroke:#00420b;stroke-miterlimit:10;}.cls-3{font-size:20.7px;fill:#fff;font-family:Apple-Chancery, Apple Chancery;}</style></defs><polygon class="cls-1" points="99.99 50.01 79.97 50.88 99.91 52.9 79.86 52.63 99.66 55.8 79.66 54.36 99.24 58.68 79.36 56.08 98.65 61.53 78.96 57.77 97.9 64.34 78.47 59.44 96.98 67.11 77.87 61.08 95.91 69.82 77.18 62.67 94.67 72.45 76.4 64.23 93.29 75.01 75.52 65.74 91.76 77.49 74.56 67.19 90.09 79.86 73.52 68.59 88.29 82.14 72.4 69.93 86.36 84.31 71.2 71.2 84.31 86.36 69.93 72.4 82.14 88.3 68.59 73.52 79.86 90.1 67.19 74.57 77.48 91.77 65.73 75.53 75.01 93.3 64.22 76.4 72.45 94.68 62.67 77.18 69.81 95.91 61.07 77.87 67.11 96.99 59.44 78.47 64.34 97.9 57.77 78.96 61.53 98.65 56.08 79.36 58.68 99.24 54.36 79.66 55.8 99.66 52.63 79.86 52.91 99.91 50.88 79.97 50.01 99.99 49.13 79.97 47.11 99.91 47.38 79.86 44.21 99.66 45.65 79.66 41.33 99.24 43.93 79.36 38.48 98.65 42.24 78.96 35.67 97.9 40.57 78.47 32.9 96.98 38.94 77.87 30.2 95.91 37.34 77.18 27.56 94.67 35.78 76.4 25 93.29 34.27 75.52 22.52 91.76 32.82 74.56 20.15 90.09 31.42 73.52 17.87 88.29 30.08 72.4 15.7 86.36 28.81 71.2 13.65 84.31 27.61 69.93 11.72 82.14 26.49 68.59 9.91 79.86 25.45 67.19 8.24 77.48 24.49 65.73 6.72 75.01 23.61 64.22 5.33 72.45 22.83 62.67 4.1 69.81 22.14 61.07 3.03 67.11 21.55 59.44 2.11 64.34 21.05 57.77 1.36 61.53 20.65 56.08 0.77 58.68 20.35 54.36 0.35 55.8 20.15 52.63 0.1 52.91 20.05 50.88 0.02 50.01 20.05 49.13 0.1 47.11 20.15 47.38 0.35 44.21 20.35 45.65 0.77 41.33 20.65 43.93 1.36 38.48 21.05 42.24 2.11 35.67 21.55 40.57 3.03 32.9 22.14 38.94 4.1 30.2 22.83 37.34 5.34 27.56 23.61 35.78 6.72 25 24.49 34.27 8.25 22.52 25.45 32.82 9.92 20.15 26.49 31.42 11.72 17.87 27.62 30.08 13.65 15.7 28.82 28.81 15.71 13.65 30.09 27.61 17.88 11.72 31.42 26.49 20.15 9.91 32.82 25.45 22.53 8.24 34.28 24.49 25 6.72 35.79 23.61 27.56 5.33 37.34 22.83 30.2 4.1 38.94 22.14 32.91 3.03 40.57 21.55 35.67 2.11 42.24 21.05 38.48 1.36 43.93 20.65 41.34 0.77 45.65 20.35 44.21 0.35 47.38 20.15 47.11 0.1 49.13 20.05 50.01 0.02 50.88 20.05 52.9 0.1 52.63 20.15 55.8 0.35 54.36 20.35 58.68 0.77 56.08 20.65 61.53 1.36 57.77 21.05 64.34 2.11 59.44 21.55 67.11 3.03 61.08 22.14 69.82 4.1 62.67 22.83 72.45 5.34 64.23 23.61 75.01 6.72 65.74 24.49 77.49 8.25 67.19 25.45 79.86 9.92 68.59 26.49 82.14 11.72 69.93 27.62 84.31 13.65 71.2 28.82 86.36 15.71 72.4 30.09 88.3 17.88 73.52 31.42 90.1 20.15 74.57 32.82 91.77 22.53 75.53 34.28 93.3 25 76.4 35.79 94.68 27.56 77.18 37.34 95.91 30.2 77.87 38.94 96.99 32.91 78.47 40.57 97.9 35.67 78.96 42.24 98.65 38.48 79.36 43.93 99.24 41.34 79.66 45.65 99.66 44.21 79.86 47.38 99.91 47.11 79.97 49.13 99.99 50.01"/><polygon class="cls-2" points="99.99 50.01 79.97 50.88 99.91 52.9 79.86 52.63 99.66 55.8 79.66 54.36 99.24 58.68 79.36 56.08 98.65 61.53 78.96 57.77 97.9 64.34 78.47 59.44 96.98 67.11 77.87 61.08 95.91 69.82 77.18 62.67 94.67 72.45 76.4 64.23 93.29 75.01 75.52 65.74 91.76 77.49 74.56 67.19 90.09 79.86 73.52 68.59 88.29 82.14 72.4 69.93 86.36 84.31 71.2 71.2 84.31 86.36 69.93 72.4 82.14 88.3 68.59 73.52 79.86 90.1 67.19 74.57 77.48 91.77 65.73 75.53 75.01 93.3 64.22 76.4 72.45 94.68 62.67 77.18 69.81 95.91 61.07 77.87 67.11 96.99 59.44 78.47 64.34 97.9 57.77 78.96 61.53 98.65 56.08 79.36 58.68 99.24 54.36 79.66 55.8 99.66 52.63 79.86 52.91 99.91 50.88 79.97 50.01 99.99 49.13 79.97 47.11 99.91 47.38 79.86 44.21 99.66 45.65 79.66 41.33 99.24 43.93 79.36 38.48 98.65 42.24 78.96 35.67 97.9 40.57 78.47 32.9 96.98 38.94 77.87 30.2 95.91 37.34 77.18 27.56 94.67 35.78 76.4 25 93.29 34.27 75.52 22.52 91.76 32.82 74.56 20.15 90.09 31.42 73.52 17.87 88.29 30.08 72.4 15.7 86.36 28.81 71.2 13.65 84.31 27.61 69.93 11.72 82.14 26.49 68.59 9.91 79.86 25.45 67.19 8.24 77.48 24.49 65.73 6.72 75.01 23.61 64.22 5.33 72.45 22.83 62.67 4.1 69.81 22.14 61.07 3.03 67.11 21.55 59.44 2.11 64.34 21.05 57.77 1.36 61.53 20.65 56.08 0.77 58.68 20.35 54.36 0.35 55.8 20.15 52.63 0.1 52.91 20.05 50.88 0.02 50.01 20.05 49.13 0.1 47.11 20.15 47.38 0.35 44.21 20.35 45.65 0.77 41.33 20.65 43.93 1.36 38.48 21.05 42.24 2.11 35.67 21.55 40.57 3.03 32.9 22.14 38.94 4.1 30.2 22.83 37.34 5.34 27.56 23.61 35.78 6.72 25 24.49 34.27 8.25 22.52 25.45 32.82 9.92 20.15 26.49 31.42 11.72 17.87 27.62 30.08 13.65 15.7 28.82 28.81 15.71 13.65 30.09 27.61 17.88 11.72 31.42 26.49 20.15 9.91 32.82 25.45 22.53 8.24 34.28 24.49 25 6.72 35.79 23.61 27.56 5.33 37.34 22.83 30.2 4.1 38.94 22.14 32.91 3.03 40.57 21.55 35.67 2.11 42.24 21.05 38.48 1.36 43.93 20.65 41.34 0.77 45.65 20.35 44.21 0.35 47.38 20.15 47.11 0.1 49.13 20.05 50.01 0.02 50.88 20.05 52.9 0.1 52.63 20.15 55.8 0.35 54.36 20.35 58.68 0.77 56.08 20.65 61.53 1.36 57.77 21.05 64.34 2.11 59.44 21.55 67.11 3.03 61.08 22.14 69.82 4.1 62.67 22.83 72.45 5.34 64.23 23.61 75.01 6.72 65.74 24.49 77.49 8.25 67.19 25.45 79.86 9.92 68.59 26.49 82.14 11.72 69.93 27.62 84.31 13.65 71.2 28.82 86.36 15.71 72.4 30.09 88.3 17.88 73.52 31.42 90.1 20.15 74.57 32.82 91.77 22.53 75.53 34.28 93.3 25 76.4 35.79 94.68 27.56 77.18 37.34 95.91 30.2 77.87 38.94 96.99 32.91 78.47 40.57 97.9 35.67 78.96 42.24 98.65 38.48 79.36 43.93 99.24 41.34 79.66 45.65 99.66 44.21 79.86 47.38 99.91 47.11 79.97 49.13 99.99 50.01"/><text class="cls-3" transform="translate(14.04 58.33)">Marimo</text></svg>